<?xml version="1.0" encoding="UTF-8" standalone="no"?>
<!-- Created with Inkscape (http://www.inkscape.org/) -->

<svg
   width="210mm"
   height="297mm"
   viewBox="0 0 210 297"
   version="1.1"
   id="svg1"
   inkscape:version="1.3.2 (091e20e, 2023-11-25, custom)"
   sodipodi:docname="logo-ggcircualr.svg"
   inkscape:export-filename="logo-ggcircualr.png"
   inkscape:export-xdpi="96"
   inkscape:export-ydpi="96"
   xmlns:inkscape="http://www.inkscape.org/namespaces/inkscape"
   xmlns:sodipodi="http://sodipodi.sourceforge.net/DTD/sodipodi-0.dtd"
   xmlns="http://www.w3.org/2000/svg"
   xmlns:svg="http://www.w3.org/2000/svg">
  <sodipodi:namedview
     id="namedview1"
     pagecolor="#ffffff"
     bordercolor="#000000"
     borderopacity="0.25"
     inkscape:showpageshadow="2"
     inkscape:pageopacity="0.0"
     inkscape:pagecheckerboard="0"
     inkscape:deskcolor="#d1d1d1"
     inkscape:document-units="mm"
     inkscape:zoom="1.5964085"
     inkscape:cx="397.14146"
     inkscape:cy="561.25985"
     inkscape:window-width="3840"
     inkscape:window-height="2054"
     inkscape:window-x="-11"
     inkscape:window-y="-11"
     inkscape:window-maximized="1"
     inkscape:current-layer="layer1" />
  <defs
     id="defs1">
    <linearGradient
       id="swatch7"
       inkscape:swatch="solid">
      <stop
         style="stop-color:#96a0e2;stop-opacity:1;"
         offset="0"
         id="stop7" />
    </linearGradient>
    <rect
       x="232.39665"
       y="148.45824"
       width="103.98341"
       height="46.354049"
       id="rect4" />
    <rect
       x="348.28178"
       y="167.87683"
       width="90.828881"
       height="19.418588"
       id="rect3" />
  </defs>
  <g
     inkscape:label="Layer 1"
     inkscape:groupmode="layer"
     id="layer1">
    <circle
       style="fill:#c8cef0;fill-opacity:1;stroke-width:3;stroke-dasharray:none"
       id="path1"
       transform="matrix(-0.96439617,0.26446177,0.26446177,0.96439617,0,0)"
       r="31.987165"
       cy="117.55596"
       cx="-67.406807" />
    <path
       style="font-weight:bold;font-size:11.2889px;font-family:'Lucida Sans Typewriter OT';-inkscape-font-specification:'Lucida Sans Typewriter OT Bold';fill:#030f7a;stroke-width:0.264583;fill-opacity:1"
       d="m 74.856101,96.790326 -1.050811,0.413157 c -0.869309,0.349798 -1.54573,0.105661 -1.879909,-0.69678 -0.217,-0.521065 -0.318481,-1.17584 -0.33394,-2.123242 l -1.135896,0.326303 c 0.07796,1.068118 0.208964,1.735056 0.499743,2.433283 0.329839,0.79202 0.888974,1.341804 1.590578,1.587682 0.686843,0.239797 1.293851,0.170437 2.283876,-0.241862 l 4.835488,-2.013757 -0.520799,-1.250557 -0.552303,0.08326 -0.05208,-0.125056 c 0.249335,-0.605213 0.25204,-1.156632 0.009,-1.740226 -0.594579,-1.427719 -2.127182,-1.877817 -3.888384,-1.144358 -1.636146,0.681379 -2.389266,1.985544 -1.868467,3.236101 0.32984,0.79202 1.010575,1.193334 2.037865,1.19352 z m 0.995249,-0.487847 c -0.726813,-0.100863 -1.202631,-0.391856 -1.397931,-0.860815 -0.256059,-0.614858 0.117447,-1.186182 1.01368,-1.559421 1.042131,-0.433999 1.815827,-0.279288 2.102266,0.408519 0.0868,0.208426 0.136254,0.444634 0.111903,0.650434 -0.02435,0.205801 -0.04434,0.275268 -0.152087,0.662544 z m 2.48768,5.888921 -0.913327,0.66388 c -0.753561,0.55696 -1.469621,0.49057 -1.994663,-0.20219 -0.340937,-0.44984 -0.603648,-1.05813 -0.856606,-1.97127 l -1.017502,0.60119 c 0.343779,1.01428 0.638122,1.62692 1.094977,2.22972 0.518224,0.68376 1.197539,1.07546 1.938411,1.1372 0.725057,0.0596 1.295176,-0.16005 2.149882,-0.80783 l 4.174559,-3.16389 -0.818248,-1.079632 -0.513676,0.219336 -0.08182,-0.107963 c 0.0893,-0.64844 -0.0466,-1.182857 -0.428447,-1.686683 -0.934166,-1.232575 -2.530692,-1.283238 -4.051168,-0.130872 -1.412512,1.070542 -1.813866,2.522074 -0.995618,3.601704 0.518224,0.68376 1.277943,0.9012 2.272338,0.64332 z m 0.840783,-0.72222 c -0.728844,0.085 -1.262503,-0.0772 -1.569346,-0.48204 -0.402306,-0.53081 -0.184298,-1.177645 0.589435,-1.764056 0.89969,-0.681873 1.687441,-0.726481 2.137477,-0.132686 0.136375,0.179938 0.24358,0.396148 0.271708,0.601467 0.02813,0.205319 0.02623,0.277578 0.01923,0.679505 z m 4.94067,6.03633 c -0.526491,-0.17117 -1.048314,-0.43933 -1.420441,-0.73314 -1.08094,-0.85345 -1.243643,-2.0319 -0.425172,-3.06854 0.713539,-0.90374 1.71944,-1.03007 2.614316,-0.32353 0.451869,0.35677 0.927978,0.91966 1.294963,1.51146 l 0.741521,-0.93917 c -0.279321,-0.39314 -0.407093,-0.52279 -0.788544,-0.89588 -0.255543,-0.25929 -0.514352,-0.47802 -0.753577,-0.6669 -1.674571,-1.32214 -3.39444,-1.18418 -4.611653,0.35749 -1.210218,1.53281 -0.894113,3.26388 0.84248,4.63499 0.487309,0.38475 1.188201,0.80869 1.764586,1.0624 z m 6.235946,-5.17782 -0.659085,1.49833 1.498338,0.65909 0.659085,-1.49834 z m 0.402893,3.14942 -3.492678,-1.53635 -0.43636,0.99201 1.99434,0.87726 -1.972711,4.48468 1.498338,0.65909 z m 2.182082,6.70726 0.555583,-3.43231 c 0.363697,-0.41 0.544965,-0.54076 0.915358,-0.70952 0.394483,-0.1763 0.793217,-0.23755 1.205539,-0.17081 0.06686,0.0108 0.15421,0.0364 0.286133,0.0692 l -0.180385,1.11439 1.06981,0.17317 0.391434,-2.41822 c -0.505723,-0.19622 -0.713848,-0.25278 -1.092739,-0.31411 -0.501474,-0.0812 -0.883651,-0.0516 -1.298619,0.11 -0.463151,0.17662 -0.670314,0.32606 -1.08007,0.80865 l -0.06686,-0.0108 0.250855,-1.12585 -1.615859,-0.26156 -0.956036,5.90624 z m 9.895096,-1.25521 c -0.49911,0.23953 -1.0618,0.40566 -1.53387,0.4499 -1.371232,0.12852 -2.302344,-0.61192 -2.425594,-1.92696 -0.107449,-1.14644 0.533229,-1.93214 1.668434,-2.03854 0.57322,-0.0537 1.30625,0.025 1.98027,0.19991 l -0.11166,-1.1914 c -0.47347,-0.0917 -0.65541,-0.0973 -1.18894,-0.104 -0.36388,-0.0113 -0.70212,0.009 -1.00559,0.0375 -2.124295,0.1991 -3.273579,1.48601 -3.090284,3.44171 0.182242,1.94445 1.605783,2.97889 3.808754,2.77242 0.61818,-0.0579 1.41795,-0.23495 2.01015,-0.44918 z m 4.63457,-1.35695 0.3283,1.10575 1.52851,-0.55339 -2.0368,-5.62576 -1.5285,0.55339 1.26819,3.50283 c -0.17259,0.65078 -0.53496,1.14216 -0.97016,1.29972 -0.45643,0.16525 -0.73588,-0.01 -0.95109,-0.60413 l -1.26819,-3.50283 -1.53913,0.55723 1.39117,3.8425 c 0.44195,1.22068 1.29678,1.69158 2.36885,1.30344 0.83856,-0.3036 1.31788,-0.96938 1.34516,-1.85569 z m 1.29138,-9.37177 -3.14645,2.15847 0.61305,0.89367 1.79665,-1.2325 4.31056,6.2836 1.34981,-0.92598 z m 7.99197,-1.124073 c -0.7412,-0.644369 -1.12938,-0.81729 -1.66864,-0.747596 -0.34074,0.04782 -0.66851,0.166747 -0.94294,0.361968 -0.32849,0.223005 -0.59958,0.466004 -0.88844,0.798265 -0.24441,0.281145 -0.41994,0.517466 -0.66398,0.918616 -0.26513,0.44263 -0.34215,0.60005 -0.52544,1.06896 l 0.90307,0.7851 c 0.1144,-0.4241 0.1755,-0.5804 0.34953,-0.95265 0.18144,-0.38077 0.33252,-0.62338 0.54731,-0.87045 0.5629,-0.647485 1.0903,-0.772364 1.55888,-0.365 l 0.22151,0.19257 -0.42218,0.48561 c -0.78509,0.90307 -1.10503,1.47756 -1.16347,2.1298 -0.0521,0.6278 0.1694,1.16445 0.66353,1.59403 0.83491,0.72584 1.96232,0.59904 2.7326,-0.28699 0.4518,-0.5197 0.61877,-1.1075 0.47241,-1.71342 l 0.11109,-0.12779 c 0.37521,0.1018 0.52706,0.0992 0.80705,-0.0164 0.23333,-0.0963 0.43146,-0.2382 0.62403,-0.45971 0.19998,-0.23002 0.30033,-0.39707 0.45733,-0.78414 l -0.81788,-0.71103 c -0.0507,0.0756 -0.0718,0.11705 -0.10887,0.15965 -0.0667,0.0767 -0.15147,0.12261 -0.22258,0.13558 -0.0956,0.007 -0.21038,-0.0333 -0.30298,-0.0988 l -0.18743,-0.16295 z m -0.29127,1.900803 0.7412,0.64437 c 0.0108,0.38334 -0.004,0.52038 -0.094,0.83077 -0.0766,0.27742 -0.16735,0.46781 -0.29327,0.61264 -0.30366,0.3493 -0.77922,0.41454 -1.09444,0.1405 -0.20447,-0.17776 -0.32451,-0.52145 -0.25529,-0.79036 0.0618,-0.26038 0.25513,-0.58596 0.60323,-0.98638 z m 5.01233,-2.719312 -3.11288,-1.548978 c -0.28362,-0.468971 -0.35471,-0.680874 -0.40597,-1.08466 -0.0513,-0.429029 0.009,-0.82798 0.19458,-1.201931 0.0302,-0.06064 0.0805,-0.136466 0.15098,-0.252718 l 1.01067,0.502915 0.4828,-0.97025 -2.19317,-1.091326 c -0.33744,0.424727 -0.4532,0.606698 -0.62419,0.950328 -0.22632,0.454805 -0.31142,0.828562 -0.28028,1.272775 0.0312,0.494699 0.11248,0.736874 0.45176,1.27137 l -0.0302,0.06064 -1.00072,-0.573614 -0.72922,1.465483 5.35659,2.665449 z"
       id="text2"
       aria-label="ggcircular" />
    <text
       xml:space="preserve"
       transform="scale(0.26458333)"
       id="text3"
       style="font-style:normal;font-variant:normal;font-weight:normal;font-stretch:normal;font-family:'Lucida Sans Typewriter OT';-inkscape-font-specification:'Lucida Sans Typewriter OT';white-space:pre;shape-inside:url(#rect3);display:inline;fill:#96a0e2;fill-opacity:1" />
    <text
       xml:space="preserve"
       transform="scale(0.26458333)"
       id="text4"
       style="font-style:normal;font-variant:normal;font-weight:normal;font-stretch:normal;font-family:'Lucida Sans Typewriter OT';-inkscape-font-specification:'Lucida Sans Typewriter OT';white-space:pre;shape-inside:url(#rect4);display:inline;fill:#96a0e2;fill-opacity:1" />
    <circle
       style="display:inline;fill:#2b3483;fill-opacity:1;stroke-width:1.06749"
       id="path2"
       cx="97.867462"
       cy="88.669083"
       r="4.8063617" />
  </g>
</svg>
